<?xml version="1.0" standalone="no"?>
<!DOCTYPE svg PUBLIC "-//W3C//DTD SVG 20010904//EN"
 "http://www.w3.org/TR/2001/REC-SVG-20010904/DTD/svg10.dtd">
<svg version="1.0" xmlns="http://www.w3.org/2000/svg"
 width="512.000000pt" height="512.000000pt" viewBox="0 0 512.000000 512.000000"
 preserveAspectRatio="xMidYMid meet">
<metadata>
Created by potrace 1.14, written by Peter Selinger 2001-2017
</metadata>
<g transform="translate(0.000000,512.000000) scale(0.100000,-0.100000)"
fill="#000000" stroke="none">
<path d="M574 5100 c-293 -77 -480 -264 -555 -558 -18 -73 -19 -136 -19 -1982
0 -1846 1 -1909 19 -1982 39 -152 91 -249 190 -351 100 -105 212 -168 369
-208 73 -18 136 -19 1982 -19 1846 0 1909 1 1982 19 157 40 269 103 369 208
99 102 151 199 190 351 18 73 19 136 19 1982 0 1846 -1 1909 -19 1982 -40 157
-103 269 -208 369 -102 99 -199 151 -351 190 -73 18 -135 19 -1986 18 -1826 0
-1914 -1 -1982 -19z m1835 -1160 c212 -22 370 -85 488 -195 119 -110 171 -229
172 -390 1 -201 -73 -360 -222 -480 -97 -78 -248 -151 -386 -185 -23 -6 -41
-14 -38 -16 3 -3 46 -14 96 -24 289 -59 478 -169 601 -350 24 -35 55 -96 69
-134 23 -64 26 -85 25 -216 0 -133 -2 -152 -27 -225 -86 -244 -306 -419 -626
-498 -83 -20 -114 -21 -828 -24 l-743 -4 0 70 0 70 33 5 c17 3 66 10 107 16
97 14 178 53 205 100 20 34 20 51 20 1100 0 1022 -1 1067 -19 1103 -30 61
-150 118 -282 133 l-54 7 0 73 0 74 654 0 c379 0 696 -4 755 -10z m1549 -2275
c49 -21 110 -80 133 -130 39 -83 17 -208 -49 -279 -41 -44 -118 -76 -182 -76
-104 0 -211 76 -238 169 -17 54 -15 135 3 179 21 49 80 110 130 133 50 23 151
25 203 4z"/>
<path d="M1803 3783 l-23 -4 0 -526 0 -526 188 6 c278 8 391 44 493 155 94
103 133 223 133 412 0 269 -114 427 -343 476 -62 13 -390 18 -448 7z"/>
<path d="M1793 2564 c-10 -4 -13 -116 -13 -512 0 -474 2 -510 19 -548 22 -49
70 -88 143 -116 73 -28 264 -36 365 -15 266 57 411 256 429 587 16 296 -129
509 -401 586 -47 13 -111 18 -295 20 -129 2 -241 1 -247 -2z"/>
</g>
</svg>
