<?xml version="1.0" standalone="no"?>
<!DOCTYPE svg PUBLIC "-//W3C//DTD SVG 20010904//EN"
 "http://www.w3.org/TR/2001/REC-SVG-20010904/DTD/svg10.dtd">
<svg version="1.0" xmlns="http://www.w3.org/2000/svg"
 width="1280.000000pt" height="1280.000000pt" viewBox="0 0 1280.000000 1280.000000"
 preserveAspectRatio="xMidYMid meet">
<metadata>
Created by potrace 1.14, written by Peter Selinger 2001-2017
</metadata>
<g transform="translate(0.000000,1280.000000) scale(0.100000,-0.100000)"
fill="#000000" stroke="none">
<path d="M2309 12796 c-2 -2 -35 -7 -74 -10 -255 -24 -559 -111 -812 -231
-267 -127 -480 -279 -700 -501 -198 -200 -342 -402 -468 -659 -62 -125 -155
-369 -169 -441 -2 -10 -11 -46 -19 -79 -9 -33 -18 -76 -21 -95 -3 -19 -7 -44
-10 -55 -2 -11 -7 -45 -11 -75 -4 -30 -10 -64 -14 -75 -3 -11 -7 -1872 -8
-4135 -1 -3499 1 -4131 13 -4220 20 -152 27 -189 50 -290 9 -36 17 -73 19 -83
2 -10 25 -80 50 -155 82 -242 252 -555 399 -735 26 -33 57 -71 69 -85 27 -33
220 -226 267 -267 187 -163 424 -309 662 -409 92 -39 273 -102 318 -111 8 -2
42 -10 75 -18 33 -9 76 -18 95 -21 19 -3 44 -7 55 -10 154 -31 168 -31 4310
-31 2255 0 4131 3 4169 8 80 9 250 35 268 42 7 2 24 7 38 9 81 16 189 46 223
63 15 7 27 11 27 9 0 -3 28 7 63 20 90 36 90 36 227 102 624 302 1098 862
1298 1537 27 92 61 243 78 355 4 25 9 59 12 75 3 17 7 1879 8 4140 3 3959 2
4115 -16 4245 -20 144 -26 180 -34 208 -3 9 -7 28 -10 42 -30 158 -120 402
-217 590 -57 109 -200 333 -251 392 -13 15 -34 42 -48 60 -51 68 -299 306
-395 379 -199 151 -464 297 -660 364 -44 15 -89 31 -100 36 -21 9 -122 37
-165 45 -14 3 -38 9 -55 14 -43 12 -142 29 -270 45 -92 11 -781 14 -4186 14
-2242 1 -4078 -1 -4080 -3z"/>
</g>
</svg>
